<svg width="242" height="112" viewBox="0 0 242 112" fill="none" xmlns="http://www.w3.org/2000/svg">
<rect width="242" height="112" fill="#111012"/>
<path d="M157.002 59.0157L151.776 62.0331L146.547 65.0505L141.321 68.0712L136.095 71.0887L133.075 76.3177L130.057 81.5435L127.04 86.7725L124.023 91.9983H117.984L121.002 86.7725L124.023 81.5435L127.04 76.3177L130.057 71.0887L132.266 67.2589L136.092 65.0505L141.321 62.0331L146.547 59.0157L141.321 55.9983L136.092 52.9776L130.863 49.9602L128.436 48.5609L127.037 46.137L124.019 40.9079L121.002 35.6789L124.019 30.4531L127.037 35.6789L130.054 40.9079L132.262 44.7344L136.092 46.9428L141.321 49.9602L146.547 52.9776L151.776 55.9983L157.002 59.0157Z" fill="url(#paint0_linear_6828_538585)"/>
<path d="M146.545 59.0192L141.319 62.0366L136.09 65.054L132.264 67.2624L130.056 71.0921L127.038 76.3212L124.021 81.547L121 86.776L117.983 92.0018L114.965 86.776L111.948 81.547L108.927 76.3212L105.91 71.0955L100.681 68.0747L95.4548 65.0573L90.2258 62.0399L85 59.0225V52.9844L90.2258 56.0018L95.4548 59.0225L100.681 62.0399L105.91 65.0573L109.739 67.2657L111.948 71.0921L114.965 76.3212L117.983 81.547L121 76.3212L124.021 71.0921L127.038 65.8631L128.437 63.4359L130.861 62.0366L136.09 59.0192L141.319 56.0018L146.545 59.0192Z" fill="url(#paint1_linear_6828_538585)"/>
<path d="M100.681 49.9652L95.4548 52.9826L100.681 56L105.91 59.0207L111.139 62.0381L113.566 63.4374L114.965 65.8613L117.983 71.0904L121 76.3194L117.983 81.5452L114.965 76.3194L111.948 71.0904L109.739 67.2639L105.91 65.0555L100.681 62.0381L95.4548 59.0207L90.2258 56L85 52.9826L90.2258 49.9652L95.4548 46.9478L100.681 43.9271L105.906 40.9096L108.927 35.6806L111.944 30.4548L114.962 25.2258L117.979 20H124.017L121 25.2258L117.979 30.4548L114.962 35.6806L111.944 40.9096L109.736 44.7394L108.433 45.4921L105.91 46.9478L100.681 49.9652Z" fill="url(#paint2_linear_6828_538585)"/>
<path d="M156.998 52.9793V59.0174L151.773 56L146.543 52.9793L141.318 49.9619L136.089 46.9445L132.259 44.7361L130.051 40.9096L127.033 35.6806L124.016 30.4548L120.998 35.6806L117.978 40.9096L114.96 46.1387L113.561 48.5659L111.137 49.9652L105.908 52.9826L100.679 56L95.4531 52.9826L100.679 49.9652L105.908 46.9478L108.431 45.4921L109.734 44.7394L111.943 40.9096L114.96 35.6806L117.978 30.4548L120.998 25.2258L124.016 20L127.033 25.2258L130.051 30.4548L133.071 35.6806L136.089 40.9063L141.318 43.9271L146.543 46.9445L151.773 49.9619L156.998 52.9793Z" fill="url(#paint3_linear_6828_538585)"/>
<defs>
<linearGradient id="paint0_linear_6828_538585" x1="137.493" y1="30.4531" x2="137.493" y2="91.9983" gradientUnits="userSpaceOnUse">
<stop stop-color="#CF6BE8"/>
<stop offset="1" stop-color="#7857FC"/>
</linearGradient>
<linearGradient id="paint1_linear_6828_538585" x1="115.773" y1="52.9844" x2="115.773" y2="92.0018" gradientUnits="userSpaceOnUse">
<stop stop-color="#8B44FF"/>
<stop offset="1" stop-color="#7A40D9"/>
</linearGradient>
<linearGradient id="paint2_linear_6828_538585" x1="104.509" y1="20" x2="104.509" y2="81.5452" gradientUnits="userSpaceOnUse">
<stop stop-color="#CF6BE8"/>
<stop offset="1" stop-color="#7857FC"/>
</linearGradient>
<linearGradient id="paint3_linear_6828_538585" x1="126.226" y1="20" x2="126.226" y2="59.0174" gradientUnits="userSpaceOnUse">
<stop stop-color="#8B44FF"/>
<stop offset="1" stop-color="#7A40D9"/>
</linearGradient>
</defs>
</svg>
