<svg width="47" height="47" viewBox="0 0 47 47" fill="none" xmlns="http://www.w3.org/2000/svg">
<path d="M46.8996 25.4177L43.4957 27.3832L40.0896 29.3487L36.6856 31.3163L33.2816 33.2818L31.314 36.6879L29.3485 40.0919L27.383 43.498L25.4175 46.902H21.4844L23.4499 43.498L25.4175 40.0919L27.383 36.6879L29.3485 33.2818L30.787 30.7872L33.2795 29.3487L36.6856 27.3832L40.0896 25.4177L36.6856 23.4522L33.2795 21.4846L29.8733 19.5191L28.2923 18.6076L27.3808 17.0287L25.4153 13.6226L23.4499 10.2165L25.4153 6.8125L27.3808 10.2165L29.3463 13.6226L30.7848 16.1151L33.2795 17.5536L36.6856 19.5191L40.0896 21.4846L43.4957 23.4522L46.8996 25.4177Z" fill="url(#paint0_linear_6829_538614)"/>
<path d="M40.0895 25.4154L36.6855 27.3808L33.2794 29.3463L30.7869 30.7848L29.3484 33.2795L27.3829 36.6856L25.4174 40.0896L23.4498 43.4957L21.4843 46.8997L19.5188 43.4957L17.5533 40.0896L15.5857 36.6856L13.6202 33.2816L10.2141 31.314L6.81009 29.3485L3.40397 27.383L0 25.4175V21.4844L3.40397 23.4499L6.81009 25.4175L10.2141 27.383L13.6202 29.3485L16.1148 30.787L17.5533 33.2795L19.5188 36.6856L21.4843 40.0896L23.4498 36.6856L25.4174 33.2795L27.3829 29.8733L28.2944 28.2923L29.8732 27.3808L33.2794 25.4154L36.6855 23.4499L40.0895 25.4154Z" fill="url(#paint1_linear_6829_538614)"/>
<path d="M10.2141 19.5188L6.81009 21.4843L10.2141 23.4498L13.6202 25.4174L17.0263 27.3829L18.6073 28.2944L19.5188 29.8733L21.4843 33.2794L23.4498 36.6855L21.4843 40.0895L19.5188 36.6855L17.5533 33.2794L16.1148 30.7869L13.6202 29.3484L10.2141 27.3829L6.81009 25.4174L3.40397 23.4498L0 21.4843L3.40397 19.5188L6.81009 17.5533L10.2141 15.5857L13.618 13.6202L15.5857 10.2141L17.5512 6.8101L19.5166 3.40397L21.4821 0H25.4153L23.4498 3.40397L21.4821 6.8101L19.5166 10.2141L17.5512 13.6202L16.1127 16.1149L15.2638 16.6051L13.6202 17.5533L10.2141 19.5188Z" fill="url(#paint2_linear_6829_538614)"/>
<path d="M46.8981 21.4821V25.4153L43.4941 23.4498L40.088 21.4821L36.684 19.5167L33.2779 17.5512L30.7832 16.1127L29.3447 13.6202L27.3793 10.2141L25.4138 6.8101L23.4483 10.2141L21.4806 13.6202L19.5151 17.0263L18.6037 18.6074L17.0248 19.5188L13.6187 21.4843L10.2126 23.4498L6.80859 21.4843L10.2126 19.5188L13.6187 17.5533L15.2623 16.6051L16.1112 16.1149L17.5497 13.6202L19.5151 10.2141L21.4806 6.8101L23.4483 3.40397L25.4138 0L27.3793 3.40397L29.3447 6.8101L31.3124 10.2141L33.2779 13.618L36.684 15.5857L40.088 17.5512L43.4941 19.5167L46.8981 21.4821Z" fill="url(#paint3_linear_6829_538614)"/>
<defs>
<linearGradient id="paint0_linear_6829_538614" x1="34.192" y1="6.8125" x2="34.192" y2="46.902" gradientUnits="userSpaceOnUse">
<stop stop-color="#CF6BE8"/>
<stop offset="1" stop-color="#7857FC"/>
</linearGradient>
<linearGradient id="paint1_linear_6829_538614" x1="20.0447" y1="21.4844" x2="20.0447" y2="46.8997" gradientUnits="userSpaceOnUse">
<stop stop-color="#8B44FF"/>
<stop offset="1" stop-color="#7A40D9"/>
</linearGradient>
<linearGradient id="paint2_linear_6829_538614" x1="12.7076" y1="0" x2="12.7076" y2="40.0895" gradientUnits="userSpaceOnUse">
<stop stop-color="#CF6BE8"/>
<stop offset="1" stop-color="#7857FC"/>
</linearGradient>
<linearGradient id="paint3_linear_6829_538614" x1="26.8533" y1="0" x2="26.8533" y2="25.4153" gradientUnits="userSpaceOnUse">
<stop stop-color="#8B44FF"/>
<stop offset="1" stop-color="#7A40D9"/>
</linearGradient>
</defs>
</svg>
