<svg width="208" height="48" viewBox="0 0 208 48" fill="none" xmlns="http://www.w3.org/2000/svg">
<path d="M54.8995 25.9655L51.4956 27.931L48.0894 29.8965L44.6855 31.8642L41.2815 33.8297L39.3138 37.2358L37.3484 40.6398L35.3829 44.0459L33.4174 47.4499H29.4843L31.4497 44.0459L33.4174 40.6398L35.3829 37.2358L37.3484 33.8297L38.7868 31.335L41.2793 29.8965L44.6855 27.931L48.0894 25.9655L44.6855 24.0001L41.2793 22.0324L37.8732 20.0669L36.2922 19.1554L35.3807 17.5766L33.4152 14.1704L31.4497 10.7643L33.4152 7.36035L35.3807 10.7643L37.3462 14.1704L38.7847 16.6629L41.2793 18.1014L44.6855 20.0669L48.0894 22.0324L51.4956 24.0001L54.8995 25.9655Z" fill="url(#paint0_linear_2026_2028)"/>
<path d="M48.0895 25.9642L44.6855 27.9297L41.2794 29.8952L38.7869 31.3336L37.3484 33.8283L35.3829 37.2344L33.4174 40.6384L31.4498 44.0445L29.4843 47.4485L27.5188 44.0445L25.5533 40.6384L23.5857 37.2344L21.6202 33.8305L18.2141 31.8628L14.8101 29.8973L11.404 27.9318L8 25.9663V22.0332L11.404 23.9987L14.8101 25.9663L18.2141 27.9318L21.6202 29.8973L24.1148 31.3358L25.5533 33.8283L27.5188 37.2344L29.4843 40.6384L31.4498 37.2344L33.4174 33.8283L35.3829 30.4222L36.2944 28.8411L37.8732 27.9297L41.2794 25.9642L44.6855 23.9987L48.0895 25.9642Z" fill="url(#paint1_linear_2026_2028)"/>
<path d="M18.2141 20.0686L14.8101 22.0341L18.2141 23.9996L21.6202 25.9673L25.0263 27.9327L26.6073 28.8442L27.5188 30.4231L29.4843 33.8292L31.4498 37.2353L29.4843 40.6393L27.5188 37.2353L25.5533 33.8292L24.1148 31.3367L21.6202 29.8982L18.2141 27.9327L14.8101 25.9673L11.404 23.9996L8 22.0341L11.404 20.0686L14.8101 18.1031L18.2141 16.1355L21.618 14.17L23.5857 10.7639L25.5512 7.3599L27.5166 3.95377L29.4821 0.549805H33.4153L31.4498 3.95377L29.4821 7.3599L27.5166 10.7639L25.5512 14.17L24.1127 16.6647L23.2638 17.1549L21.6202 18.1031L18.2141 20.0686Z" fill="url(#paint2_linear_2026_2028)"/>
<path d="M54.8994 22.032V25.9651L51.4954 23.9996L48.0893 22.032L44.6853 20.0665L41.2792 18.101L38.7846 16.6625L37.3461 14.17L35.3806 10.7639L33.4151 7.3599L31.4496 10.7639L29.482 14.17L27.5165 17.5761L26.605 19.1572L25.0262 20.0686L21.62 22.0341L18.2139 23.9996L14.8099 22.0341L18.2139 20.0686L21.62 18.1031L23.2637 17.1549L24.1125 16.6647L25.551 14.17L27.5165 10.7639L29.482 7.3599L31.4496 3.95377L33.4151 0.549805L35.3806 3.95377L37.3461 7.3599L39.3137 10.7639L41.2792 14.1678L44.6853 16.1355L48.0893 18.101L51.4954 20.0665L54.8994 22.032Z" fill="url(#paint3_linear_2026_2028)"/>
<path d="M62.7161 34.6016V13.3982H76.1496V15.9597H65.5052V22.8188H75.1535V25.3802H65.5052V34.6016H62.7161Z" fill="black"/>
<path d="M84.1541 34.9431C83.0536 34.9431 82.0574 34.687 81.1657 34.1747C80.2929 33.6624 79.6098 32.9509 79.1165 32.0401C78.6421 31.1104 78.4049 30.0478 78.4049 28.8525V19.2611H81.0518V28.5679C81.0518 29.3268 81.2036 29.9909 81.5072 30.5601C81.8298 31.1294 82.2662 31.5752 82.8164 31.8978C83.3856 32.2204 84.0307 32.3816 84.7517 32.3816C85.4728 32.3816 86.1084 32.2204 86.6586 31.8978C87.2278 31.5752 87.6642 31.1104 87.9678 30.5032C88.2904 29.896 88.4517 29.175 88.4517 28.3402V19.2611H91.127V34.6016H88.537V31.6132L88.964 31.8693C88.6035 32.837 87.9868 33.596 87.114 34.1462C86.2602 34.6775 85.2735 34.9431 84.1541 34.9431Z" fill="black"/>
<path d="M101.461 34.7724C99.9616 34.7724 98.8042 34.3454 97.9883 33.4916C97.1914 32.6378 96.793 31.4329 96.793 29.8771V21.7942H94.0038V19.2611H94.573C95.2561 19.2611 95.7968 19.0524 96.1953 18.635C96.5937 18.2176 96.793 17.6673 96.793 16.9843V15.732H99.4398V19.2611H102.884V21.7942H99.4398V29.7917C99.4398 30.304 99.5157 30.7499 99.6675 31.1294C99.8383 31.5088 100.113 31.8124 100.493 32.0401C100.872 32.2488 101.375 32.3532 102.001 32.3532C102.134 32.3532 102.295 32.3437 102.485 32.3247C102.694 32.3057 102.884 32.2868 103.054 32.2678V34.6016C102.808 34.6585 102.533 34.6965 102.229 34.7154C101.925 34.7534 101.669 34.7724 101.461 34.7724Z" fill="black"/>
<path d="M111.948 34.9431C110.847 34.9431 109.851 34.687 108.96 34.1747C108.087 33.6624 107.404 32.9509 106.91 32.0401C106.436 31.1104 106.199 30.0478 106.199 28.8525V19.2611H108.846V28.5679C108.846 29.3268 108.998 29.9909 109.301 30.5601C109.624 31.1294 110.06 31.5752 110.61 31.8978C111.18 32.2204 111.825 32.3816 112.546 32.3816C113.267 32.3816 113.902 32.2204 114.453 31.8978C115.022 31.5752 115.458 31.1104 115.762 30.5032C116.084 29.896 116.246 29.175 116.246 28.3402V19.2611H118.921V34.6016H116.331V31.6132L116.758 31.8693C116.397 32.837 115.781 33.596 114.908 34.1462C114.054 34.6775 113.067 34.9431 111.948 34.9431Z" fill="black"/>
<path d="M123.022 34.6016V19.2611H125.611V22.0788L125.327 21.6803C125.687 20.8075 126.238 20.1624 126.978 19.745C127.718 19.3086 128.619 19.0904 129.681 19.0904H130.621V21.5949H129.283C128.201 21.5949 127.329 21.9365 126.665 22.6195C126 23.2836 125.668 24.2323 125.668 25.4656V34.6016H123.022Z" fill="black"/>
<path d="M140.03 34.9431C138.55 34.9431 137.231 34.5921 136.074 33.8901C134.917 33.188 134.006 32.2298 133.342 31.0155C132.678 29.7822 132.346 28.4066 132.346 26.8887C132.346 25.3518 132.668 23.9857 133.313 22.7903C133.977 21.5949 134.869 20.6557 135.989 19.9727C137.127 19.2706 138.398 18.9196 139.802 18.9196C140.941 18.9196 141.946 19.1283 142.819 19.5457C143.711 19.9442 144.46 20.4944 145.068 21.1965C145.694 21.8795 146.168 22.667 146.491 23.5587C146.832 24.4315 147.003 25.3423 147.003 26.291C147.003 26.4997 146.984 26.7369 146.946 27.0025C146.927 27.2492 146.899 27.4863 146.861 27.714H134.281V25.4372H145.324L144.072 26.4618C144.242 25.4751 144.147 24.5928 143.787 23.8149C143.426 23.037 142.895 22.4203 142.193 21.9649C141.491 21.5095 140.694 21.2819 139.802 21.2819C138.911 21.2819 138.095 21.5095 137.355 21.9649C136.615 22.4203 136.036 23.0749 135.619 23.9287C135.22 24.7636 135.059 25.7597 135.135 26.9171C135.059 28.0366 135.23 29.0232 135.647 29.8771C136.083 30.7119 136.691 31.3665 137.469 31.8409C138.265 32.2963 139.129 32.5239 140.058 32.5239C141.083 32.5239 141.946 32.2868 142.648 31.8124C143.35 31.3381 143.92 30.7309 144.356 29.9909L146.576 31.1294C146.272 31.8314 145.798 32.4765 145.153 33.0647C144.527 33.6339 143.777 34.0893 142.905 34.4308C142.051 34.7724 141.093 34.9431 140.03 34.9431Z" fill="black"/>
<path d="M153.637 34.6016L161.237 13.3982H164.538L172.137 34.6016H169.149L167.413 29.6209H158.362L156.626 34.6016H153.637ZM159.244 27.0594H166.53L162.489 15.4189H163.286L159.244 27.0594Z" fill="black"/>
<path d="M183.738 34.9431C182.239 34.9431 180.854 34.6775 179.583 34.1462C178.311 33.596 177.211 32.8275 176.281 31.8409C175.351 30.8542 174.621 29.6968 174.09 28.3686C173.577 27.0405 173.321 25.589 173.321 24.0141C173.321 22.4203 173.577 20.9593 174.09 19.6311C174.602 18.3029 175.323 17.1455 176.253 16.1589C177.182 15.1722 178.283 14.4133 179.554 13.882C180.825 13.3318 182.21 13.0566 183.709 13.0566C185.17 13.0566 186.48 13.3128 187.637 13.8251C188.813 14.3374 189.8 15.0015 190.597 15.8174C191.413 16.6332 191.992 17.506 192.333 18.4358L189.828 19.6596C189.335 18.4263 188.567 17.4491 187.523 16.7281C186.48 16.0071 185.208 15.6466 183.709 15.6466C182.229 15.6466 180.911 15.9976 179.753 16.6996C178.615 17.4017 177.723 18.3788 177.078 19.6311C176.433 20.8834 176.11 22.3444 176.11 24.0141C176.11 25.6648 176.433 27.1164 177.078 28.3686C177.742 29.6209 178.643 30.5981 179.782 31.3001C180.939 32.0022 182.258 32.3532 183.738 32.3532C185.028 32.3532 186.195 32.0781 187.239 31.5278C188.282 30.9776 189.107 30.2186 189.715 29.2509C190.322 28.2833 190.625 27.1638 190.625 25.8925V24.5833L191.906 25.7787H183.709V23.3595H193.443V25.2379C193.443 26.7179 193.187 28.0556 192.675 29.2509C192.162 30.4463 191.46 31.4709 190.568 32.3247C189.677 33.1596 188.643 33.8047 187.466 34.2601C186.29 34.7154 185.047 34.9431 183.738 34.9431Z" fill="black"/>
<path d="M197.211 34.6016V13.3982H200V34.6016H197.211Z" fill="black"/>
<defs>
<linearGradient id="paint0_linear_2026_2028" x1="42.1919" y1="7.36035" x2="42.1919" y2="47.4499" gradientUnits="userSpaceOnUse">
<stop stop-color="#CF6BE8"/>
<stop offset="1" stop-color="#7857FC"/>
</linearGradient>
<linearGradient id="paint1_linear_2026_2028" x1="28.0447" y1="22.0332" x2="28.0447" y2="47.4485" gradientUnits="userSpaceOnUse">
<stop stop-color="#8B44FF"/>
<stop offset="1" stop-color="#7A40D9"/>
</linearGradient>
<linearGradient id="paint2_linear_2026_2028" x1="20.7076" y1="0.549805" x2="20.7076" y2="40.6393" gradientUnits="userSpaceOnUse">
<stop stop-color="#CF6BE8"/>
<stop offset="1" stop-color="#7857FC"/>
</linearGradient>
<linearGradient id="paint3_linear_2026_2028" x1="34.8547" y1="0.549805" x2="34.8547" y2="25.9651" gradientUnits="userSpaceOnUse">
<stop stop-color="#8B44FF"/>
<stop offset="1" stop-color="#7A40D9"/>
</linearGradient>
</defs>
</svg>
