<svg width="138" height="23" viewBox="0 0 138 23" fill="none" xmlns="http://www.w3.org/2000/svg">
<path d="M0.714844 22.0528V0.849343H14.1484V3.41083H3.50402V10.2699H13.1523V12.8314H3.50402V22.0528H0.714844Z" fill="#7857FC"/>
<path d="M22.1528 22.3943C21.0523 22.3943 20.0562 22.1381 19.1644 21.6258C18.2916 21.1136 17.6086 20.402 17.1153 19.4913C16.6409 18.5616 16.4037 17.499 16.4037 16.3036V6.7123H19.0506V16.019C19.0506 16.778 19.2024 17.4421 19.506 18.0113C19.8285 18.5805 20.2649 19.0264 20.8152 19.349C21.3844 19.6715 22.0295 19.8328 22.7505 19.8328C23.4715 19.8328 24.1072 19.6715 24.6574 19.349C25.2266 19.0264 25.663 18.5616 25.9666 17.9544C26.2892 17.3472 26.4504 16.6262 26.4504 15.7914V6.7123H29.1258V22.0528H26.5358V19.0644L26.9627 19.3205C26.6022 20.2882 25.9856 21.0471 25.1128 21.5974C24.2589 22.1287 23.2723 22.3943 22.1528 22.3943Z" fill="#7857FC"/>
<path d="M39.4593 22.2235C37.9604 22.2235 36.803 21.7966 35.9871 20.9428C35.1902 20.089 34.7917 18.8841 34.7917 17.3282V9.24533H32.0026V6.7123H32.5718C33.2548 6.7123 33.7956 6.50359 34.194 6.08616C34.5925 5.66873 34.7917 5.11849 34.7917 4.43543V3.18314H37.4386V6.7123H40.8824V9.24533H37.4386V17.2429C37.4386 17.7552 37.5145 18.201 37.6663 18.5805C37.8371 18.96 38.1122 19.2636 38.4917 19.4913C38.8711 19.7 39.3739 19.8043 40.0001 19.8043C40.1329 19.8043 40.2942 19.7949 40.4839 19.7759C40.6926 19.7569 40.8824 19.7379 41.0531 19.719V22.0528C40.8065 22.1097 40.5314 22.1476 40.2278 22.1666C39.9242 22.2046 39.668 22.2235 39.4593 22.2235Z" fill="#7857FC"/>
<path d="M49.9467 22.3943C48.8463 22.3943 47.8501 22.1381 46.9583 21.6258C46.0855 21.1136 45.4025 20.402 44.9092 19.4913C44.4348 18.5616 44.1976 17.499 44.1976 16.3036V6.7123H46.8445V16.019C46.8445 16.778 46.9963 17.4421 47.2999 18.0113C47.6224 18.5805 48.0588 19.0264 48.6091 19.349C49.1783 19.6715 49.8234 19.8328 50.5444 19.8328C51.2654 19.8328 51.9011 19.6715 52.4513 19.349C53.0205 19.0264 53.4569 18.5616 53.7605 17.9544C54.0831 17.3472 54.2444 16.6262 54.2444 15.7914V6.7123H56.9197V22.0528H54.3297V19.0644L54.7566 19.3205C54.3961 20.2882 53.7795 21.0471 52.9067 21.5974C52.0529 22.1287 51.0662 22.3943 49.9467 22.3943Z" fill="#7857FC"/>
<path d="M61.0203 22.0528V6.7123H63.6102V9.52994L63.3256 9.13148C63.6861 8.25868 64.2364 7.61357 64.9764 7.19614C65.7163 6.75974 66.6176 6.54154 67.6802 6.54154H68.6194V9.0461H67.2817C66.2002 9.0461 65.3274 9.38763 64.6633 10.0707C63.9992 10.7348 63.6672 11.6835 63.6672 12.9168V22.0528H61.0203Z" fill="#7857FC"/>
<path d="M78.0288 22.3943C76.5489 22.3943 75.2302 22.0433 74.0727 21.3412C72.9153 20.6392 72.0046 19.681 71.3405 18.4667C70.6764 17.2334 70.3444 15.8578 70.3444 14.3398C70.3444 12.8029 70.6669 11.4368 71.312 10.2415C71.9761 9.0461 72.8679 8.10689 73.9874 7.42383C75.1258 6.72179 76.3971 6.37077 77.8011 6.37077C78.9396 6.37077 79.9452 6.57949 80.818 6.99691C81.7098 7.39537 82.4592 7.94561 83.0664 8.64765C83.6926 9.33071 84.1669 10.1181 84.4895 11.0099C84.831 11.8827 85.0018 12.7935 85.0018 13.7422C85.0018 13.9509 84.9828 14.188 84.9448 14.4537C84.9259 14.7003 84.8974 14.9375 84.8594 15.1652H72.2797V12.8883H83.3226L82.0703 13.9129C82.241 12.9263 82.1462 12.044 81.7857 11.2661C81.4252 10.4881 80.8939 9.87147 80.1919 9.41609C79.4898 8.96072 78.6929 8.73303 77.8011 8.73303C76.9094 8.73303 76.0935 8.96072 75.3535 9.41609C74.6135 9.87147 74.0348 10.5261 73.6174 11.3799C73.2189 12.2148 73.0576 13.2109 73.1335 14.3683C73.0576 15.4878 73.2284 16.4744 73.6458 17.3282C74.0822 18.1631 74.6894 18.8177 75.4673 19.292C76.2642 19.7474 77.1276 19.9751 78.0573 19.9751C79.0819 19.9751 79.9452 19.7379 80.6472 19.2636C81.3493 18.7892 81.9185 18.1821 82.3549 17.4421L84.5748 18.5805C84.2713 19.2826 83.7969 19.9277 83.1518 20.5159C82.5257 21.0851 81.7762 21.5405 80.9034 21.882C80.0496 22.2235 79.0914 22.3943 78.0288 22.3943Z" fill="#7857FC"/>
<path d="M91.6363 22.0528L99.2354 0.849343H102.537L110.136 22.0528H107.148L105.411 17.0721H96.3608L94.6247 22.0528H91.6363ZM97.2431 14.5106H104.529L100.488 2.87007H101.285L97.2431 14.5106Z" fill="#7857FC"/>
<path d="M121.737 22.3943C120.238 22.3943 118.853 22.1287 117.581 21.5974C116.31 21.0471 115.21 20.2787 114.28 19.292C113.35 18.3054 112.62 17.148 112.088 15.8198C111.576 14.4916 111.32 13.0401 111.32 11.4653C111.32 9.87147 111.576 8.41047 112.088 7.0823C112.601 5.75412 113.322 4.5967 114.251 3.61006C115.181 2.62341 116.282 1.86445 117.553 1.33318C118.824 0.782935 120.209 0.507812 121.708 0.507812C123.169 0.507812 124.478 0.763961 125.636 1.27626C126.812 1.78856 127.799 2.45265 128.596 3.26853C129.412 4.08441 129.99 4.95721 130.332 5.88694L127.827 7.11076C127.334 5.87745 126.566 4.90029 125.522 4.17928C124.478 3.45827 123.207 3.09776 121.708 3.09776C120.228 3.09776 118.91 3.44878 117.752 4.15082C116.614 4.85285 115.722 5.83001 115.077 7.0823C114.432 8.33458 114.109 9.79557 114.109 11.4653C114.109 13.116 114.432 14.5675 115.077 15.8198C115.741 17.0721 116.642 18.0493 117.781 18.7513C118.938 19.4533 120.257 19.8043 121.737 19.8043C123.027 19.8043 124.194 19.5292 125.237 18.979C126.281 18.4287 127.106 17.6698 127.713 16.7021C128.321 15.7344 128.624 14.615 128.624 13.3437V12.0345L129.905 13.2299H121.708V10.8107H131.442V12.6891C131.442 14.1691 131.186 15.5067 130.673 16.7021C130.161 17.8975 129.459 18.9221 128.567 19.7759C127.675 20.6107 126.641 21.2559 125.465 21.7112C124.289 22.1666 123.046 22.3943 121.737 22.3943Z" fill="#7857FC"/>
<path d="M135.21 22.0528V0.849343H137.999V22.0528H135.21Z" fill="#7857FC"/>
</svg>
