<svg xmlns="http://www.w3.org/2000/svg" viewBox="0 0 47 47" fill="none">
  <path d="M46.8996 25.4157L43.4957 27.3812L40.0896 29.3467L36.6856 31.3143L33.2816 33.2798L31.314 36.686L29.3485 40.0899L27.383 43.496L25.4175 46.9H21.4844L23.4499 43.496L25.4175 40.0899L27.383 36.686L29.3485 33.2798L30.787 30.7852L33.2795 29.3467L36.6856 27.3812L40.0896 25.4157L36.6856 23.4502L33.2795 21.4826L29.8733 19.5171L28.2923 18.6056L27.3808 17.0268L25.4153 13.6206L23.4499 10.2145L25.4153 6.81055L27.3808 10.2145L29.3463 13.6206L30.7848 16.1131L33.2795 17.5516L36.6856 19.5171L40.0896 21.4826L43.4957 23.4502L46.8996 25.4157Z" fill="url(#g1)"/>
  <path d="M40.0895 25.4153L36.6855 27.3808L33.2794 29.3463L30.7869 30.7848L29.3484 33.2795L27.3829 36.6856L25.4174 40.0896L23.4498 43.4957L21.4843 46.8996L19.5188 43.4957L17.5533 40.0896L15.5857 36.6856L13.6202 33.2816L10.2141 31.314L6.81009 29.3485L3.40397 27.383L0 25.4175V21.4844L3.40397 23.4499L6.81009 25.4175L10.2141 27.383L13.6202 29.3485L16.1148 30.787L17.5533 33.2795L19.5188 36.6856L21.4843 40.0896L23.4498 36.6856L25.4174 33.2795L27.3829 29.8733L28.2944 28.2923L29.8732 27.3808L33.2794 25.4153L36.6855 23.4499L40.0895 25.4153Z" fill="url(#g2)"/>
  <path d="M10.2141 19.5188L6.81009 21.4843L10.2141 23.4498L13.6202 25.4174L17.0263 27.3829L18.6073 28.2944L19.5188 29.8732L21.4843 33.2794L23.4498 36.6855L21.4843 40.0895L19.5188 36.6855L17.5533 33.2794L16.1148 30.7869L13.6202 29.3484L10.2141 27.3829L6.81009 25.4174L3.40397 23.4498L0 21.4843L3.40397 19.5188L6.81009 17.5533L10.2141 15.5857L13.618 13.6202L15.5857 10.2141L17.5512 6.81009L19.5166 3.40397L21.4821 0H25.4153L23.4498 3.40397L21.4821 6.81009L19.5166 10.2141L17.5512 13.6202L16.1127 16.1148L15.2638 16.6051L13.6202 17.5533L10.2141 19.5188Z" fill="url(#g3)"/>
  <path d="M46.9 21.4821V25.4153L43.496 23.4498L40.0899 21.4821L36.686 19.5166L33.2798 17.5512L30.7852 16.1127L29.3467 13.6202L27.3812 10.2141L25.4157 6.81009L23.4502 10.2141L21.4826 13.6202L19.5171 17.0263L18.6056 18.6073L17.0268 19.5188L13.6206 21.4843L10.2145 23.4498L6.81055 21.4843L10.2145 19.5188L13.6206 17.5533L15.2643 16.6051L16.1131 16.1148L17.5516 13.6202L19.5171 10.2141L21.4826 6.81009L23.4502 3.40397L25.4157 0L27.3812 3.40397L29.3467 6.81009L31.3143 10.2141L33.2798 13.618L36.686 15.5857L40.0899 17.5512L43.496 19.5166L46.9 21.4821Z" fill="url(#g4)"/>
  <defs>
    <linearGradient id="g1" x1="34.192" y1="6.81055" x2="34.192" y2="46.9" gradientUnits="userSpaceOnUse">
      <stop stop-color="white"/>
      <stop offset="1" stop-color="#E6E6E7"/>
    </linearGradient>
    <linearGradient id="g2" x1="20.0447" y1="21.4844" x2="20.0447" y2="46.8996" gradientUnits="userSpaceOnUse">
      <stop stop-color="#F3F3F3"/>
      <stop offset="1" stop-color="#A9A9AA"/>
    </linearGradient>
    <linearGradient id="g3" x1="12.7076" y1="0" x2="12.7076" y2="40.0895" gradientUnits="userSpaceOnUse">
      <stop stop-color="white"/>
      <stop offset="1" stop-color="#E6E6E7"/>
    </linearGradient>
    <linearGradient id="g4" x1="26.8553" y1="0" x2="26.8553" y2="25.4153" gradientUnits="userSpaceOnUse">
      <stop stop-color="#F3F3F3"/>
      <stop offset="1" stop-color="#A9A9AA"/>
    </linearGradient>
  </defs>
</svg>
