<svg width="242" height="112" viewBox="0 0 242 112" fill="none" xmlns="http://www.w3.org/2000/svg">
<rect width="242" height="112" fill="#121213"/>
<path d="M71.8996 57.9646L68.4957 59.9301L65.0896 61.8955L61.6856 63.8632L58.2816 65.8287L56.314 69.2348L54.3485 72.6388L52.383 76.0449L50.4175 79.4489H46.4844L48.4499 76.0449L50.4175 72.6388L52.383 69.2348L54.3485 65.8287L55.787 63.334L58.2795 61.8955L61.6856 59.9301L65.0896 57.9646L61.6856 55.9991L58.2795 54.0314L54.8733 52.0659L53.2923 51.1545L52.3808 49.5756L50.4153 46.1695L48.4499 42.7633L50.4153 39.3594L52.3808 42.7633L54.3463 46.1695L55.7848 48.662L58.2795 50.1005L61.6856 52.0659L65.0896 54.0314L68.4957 55.9991L71.8996 57.9646Z" fill="url(#paint0_linear_6828_538577)"/>
<path d="M65.0895 57.9622L61.6855 59.9277L58.2794 61.8932L55.7869 63.3317L54.3484 65.8263L52.3829 69.2325L50.4174 72.6364L48.4498 76.0426L46.4843 79.4465L44.5188 76.0426L42.5533 72.6364L40.5857 69.2325L38.6202 65.8285L35.2141 63.8609L31.8101 61.8954L28.404 59.9299L25 57.9644V54.0312L28.404 55.9967L31.8101 57.9644L35.2141 59.9299L38.6202 61.8954L41.1148 63.3338L42.5533 65.8263L44.5188 69.2325L46.4843 72.6364L48.4498 69.2325L50.4174 65.8263L52.3829 62.4202L53.2944 60.8392L54.8732 59.9277L58.2794 57.9622L61.6855 55.9967L65.0895 57.9622Z" fill="url(#paint1_linear_6828_538577)"/>
<path d="M35.2141 52.0657L31.8101 54.0312L35.2141 55.9967L38.6202 57.9643L42.0263 59.9298L43.6073 60.8413L44.5188 62.4202L46.4843 65.8263L48.4498 69.2324L46.4843 72.6364L44.5188 69.2324L42.5533 65.8263L41.1148 63.3338L38.6202 61.8953L35.2141 59.9298L31.8101 57.9643L28.404 55.9967L25 54.0312L28.404 52.0657L31.8101 50.1002L35.2141 48.1326L38.618 46.1671L40.5857 42.7609L42.5512 39.357L44.5166 35.9508L46.4821 32.5469H50.4153L48.4498 35.9508L46.4821 39.357L44.5166 42.7609L42.5512 46.1671L41.1127 48.6617L40.2638 49.152L38.6202 50.1002L35.2141 52.0657Z" fill="url(#paint2_linear_6828_538577)"/>
<path d="M71.902 54.029V57.9622L68.498 55.9967L65.0919 54.029L61.6879 52.0635L58.2818 50.098L55.7871 48.6596L54.3486 46.1671L52.3832 42.7609L50.4177 39.357L48.4522 42.7609L46.4845 46.1671L44.5191 49.5732L43.6076 51.1542L42.0287 52.0657L38.6226 54.0312L35.2165 55.9967L31.8125 54.0312L35.2165 52.0657L38.6226 50.1002L40.2663 49.152L41.1151 48.6617L42.5536 46.1671L44.5191 42.7609L46.4845 39.357L48.4522 35.9508L50.4177 32.5469L52.3832 35.9508L54.3486 39.357L56.3163 42.7609L58.2818 46.1649L61.6879 48.1326L65.0919 50.098L68.498 52.0635L71.902 54.029Z" fill="url(#paint3_linear_6828_538577)"/>
<path d="M79.7188 66.5996V45.3962H93.1523V47.9577H82.5079V54.8168H92.1562V57.3783H82.5079V66.5996H79.7188Z" fill="#7857FC"/>
<path d="M101.157 66.9412C100.056 66.9412 99.0601 66.685 98.1683 66.1727C97.2955 65.6604 96.6125 64.9489 96.1192 64.0382C95.6448 63.1084 95.4076 62.0459 95.4076 60.8505V51.2592H98.0545V60.5659C98.0545 61.3249 98.2063 61.989 98.5099 62.5582C98.8324 63.1274 99.2688 63.5733 99.8191 63.8958C100.388 64.2184 101.033 64.3797 101.754 64.3797C102.475 64.3797 103.111 64.2184 103.661 63.8958C104.231 63.5733 104.667 63.1084 104.971 62.5013C105.293 61.8941 105.454 61.1731 105.454 60.3382V51.2592H108.13V66.5996H105.54V63.6112L105.967 63.8674C105.606 64.8351 104.989 65.594 104.117 66.1443C103.263 66.6755 102.276 66.9412 101.157 66.9412Z" fill="#7857FC"/>
<path d="M118.463 66.7704C116.964 66.7704 115.807 66.3435 114.991 65.4897C114.194 64.6358 113.796 63.431 113.796 61.8751V53.7922H111.006V51.2592H111.576C112.259 51.2592 112.8 51.0505 113.198 50.633C113.596 50.2156 113.796 49.6654 113.796 48.9823V47.73H116.443V51.2592H119.886V53.7922H116.443V61.7897C116.443 62.302 116.518 62.7479 116.67 63.1274C116.841 63.5069 117.116 63.8105 117.496 64.0382C117.875 64.2469 118.378 64.3512 119.004 64.3512C119.137 64.3512 119.298 64.3417 119.488 64.3228C119.697 64.3038 119.886 64.2848 120.057 64.2658V66.5996C119.81 66.6566 119.535 66.6945 119.232 66.7135C118.928 66.7514 118.672 66.7704 118.463 66.7704Z" fill="#7857FC"/>
<path d="M128.951 66.9412C127.85 66.9412 126.854 66.685 125.962 66.1727C125.089 65.6604 124.406 64.9489 123.913 64.0382C123.439 63.1084 123.202 62.0459 123.202 60.8505V51.2592H125.848V60.5659C125.848 61.3249 126 61.989 126.304 62.5582C126.626 63.1274 127.063 63.5733 127.613 63.8958C128.182 64.2184 128.827 64.3797 129.548 64.3797C130.269 64.3797 130.905 64.2184 131.455 63.8958C132.024 63.5733 132.461 63.1084 132.764 62.5013C133.087 61.8941 133.248 61.1731 133.248 60.3382V51.2592H135.924V66.5996H133.334V63.6112L133.761 63.8674C133.4 64.8351 132.783 65.594 131.911 66.1443C131.057 66.6755 130.07 66.9412 128.951 66.9412Z" fill="#7857FC"/>
<path d="M140.024 66.5996V51.2592H142.614V54.0768L142.33 53.6784C142.69 52.8056 143.24 52.1604 143.98 51.743C144.72 51.3066 145.622 51.0884 146.684 51.0884H147.623V53.593H146.286C145.204 53.593 144.331 53.9345 143.667 54.6176C143.003 55.2817 142.671 56.2304 142.671 57.4637V66.5996H140.024Z" fill="#7857FC"/>
<path d="M157.033 66.9412C155.553 66.9412 154.234 66.5902 153.077 65.8881C151.919 65.1861 151.008 64.2279 150.344 63.0136C149.68 61.7802 149.348 60.4046 149.348 58.8867C149.348 57.3498 149.671 55.9837 150.316 54.7883C150.98 53.593 151.872 52.6538 152.991 51.9707C154.13 51.2687 155.401 50.9176 156.805 50.9176C157.943 50.9176 158.949 51.1264 159.822 51.5438C160.714 51.9422 161.463 52.4925 162.07 53.1945C162.696 53.8776 163.171 54.665 163.493 55.5568C163.835 56.4296 164.006 57.3403 164.006 58.289C164.006 58.4977 163.987 58.7349 163.949 59.0006C163.93 59.2472 163.901 59.4844 163.863 59.7121H151.284V57.4352H162.326L161.074 58.4598C161.245 57.4732 161.15 56.5909 160.79 55.8129C160.429 55.035 159.898 54.4183 159.196 53.963C158.494 53.5076 157.697 53.2799 156.805 53.2799C155.913 53.2799 155.097 53.5076 154.357 53.963C153.617 54.4183 153.039 55.0729 152.621 55.9268C152.223 56.7616 152.062 57.7578 152.137 58.9152C152.062 60.0346 152.232 61.0213 152.65 61.8751C153.086 62.71 153.693 63.3646 154.471 63.8389C155.268 64.2943 156.131 64.522 157.061 64.522C158.086 64.522 158.949 64.2848 159.651 63.8105C160.353 63.3361 160.922 62.7289 161.359 61.989L163.579 63.1274C163.275 63.8294 162.801 64.4746 162.156 65.0627C161.53 65.632 160.78 66.0873 159.907 66.4289C159.053 66.7704 158.095 66.9412 157.033 66.9412Z" fill="#7857FC"/>
<path d="M170.64 66.5996L178.239 45.3962H181.541L189.14 66.5996H186.151L184.415 61.619H175.365L173.629 66.5996H170.64ZM176.247 59.0575H183.533L179.492 47.4169H180.288L176.247 59.0575Z" fill="#7857FC"/>
<path d="M200.741 66.9412C199.242 66.9412 197.856 66.6755 196.585 66.1443C195.314 65.594 194.213 64.8256 193.284 63.8389C192.354 62.8523 191.624 61.6949 191.092 60.3667C190.58 59.0385 190.324 57.587 190.324 56.0122C190.324 54.4183 190.58 52.9573 191.092 51.6292C191.605 50.301 192.326 49.1436 193.255 48.1569C194.185 47.1703 195.286 46.4113 196.557 45.8801C197.828 45.3298 199.213 45.0547 200.712 45.0547C202.173 45.0547 203.482 45.3108 204.64 45.8231C205.816 46.3354 206.803 46.9995 207.6 47.8154C208.415 48.6313 208.994 49.5041 209.336 50.4338L206.831 51.6576C206.338 50.4243 205.569 49.4472 204.526 48.7262C203.482 48.0051 202.211 47.6446 200.712 47.6446C199.232 47.6446 197.913 47.9957 196.756 48.6977C195.618 49.3997 194.726 50.3769 194.081 51.6292C193.436 52.8815 193.113 54.3424 193.113 56.0122C193.113 57.6629 193.436 59.1144 194.081 60.3667C194.745 61.619 195.646 62.5961 196.784 63.2982C197.942 64.0002 199.261 64.3512 200.741 64.3512C202.031 64.3512 203.198 64.0761 204.241 63.5259C205.285 62.9756 206.11 62.2166 206.717 61.249C207.325 60.2813 207.628 59.1618 207.628 57.8906V56.5814L208.909 57.7767H200.712V55.3576H210.446V57.236C210.446 58.716 210.19 60.0536 209.677 61.249C209.165 62.4443 208.463 63.4689 207.571 64.3228C206.679 65.1576 205.645 65.8027 204.469 66.2581C203.293 66.7135 202.05 66.9412 200.741 66.9412Z" fill="#7857FC"/>
<path d="M214.213 66.5996V45.3962H217.003V66.5996H214.213Z" fill="#7857FC"/>
<defs>
<linearGradient id="paint0_linear_6828_538577" x1="59.192" y1="39.3594" x2="59.192" y2="79.4489" gradientUnits="userSpaceOnUse">
<stop stop-color="#CF6BE8"/>
<stop offset="1" stop-color="#7857FC"/>
</linearGradient>
<linearGradient id="paint1_linear_6828_538577" x1="45.0447" y1="54.0312" x2="45.0447" y2="79.4465" gradientUnits="userSpaceOnUse">
<stop stop-color="#8B44FF"/>
<stop offset="1" stop-color="#7A40D9"/>
</linearGradient>
<linearGradient id="paint2_linear_6828_538577" x1="37.7076" y1="32.5469" x2="37.7076" y2="72.6364" gradientUnits="userSpaceOnUse">
<stop stop-color="#CF6BE8"/>
<stop offset="1" stop-color="#7857FC"/>
</linearGradient>
<linearGradient id="paint3_linear_6828_538577" x1="51.8572" y1="32.5469" x2="51.8572" y2="57.9622" gradientUnits="userSpaceOnUse">
<stop stop-color="#8B44FF"/>
<stop offset="1" stop-color="#7A40D9"/>
</linearGradient>
</defs>
</svg>
